<?xml version="1.0" encoding="UTF-8" standalone="no"?>
<!-- Created with Inkscape (http://www.inkscape.org/) -->

<svg
   xmlns:osb="http://www.openswatchbook.org/uri/2009/osb"
   xmlns:dc="http://purl.org/dc/elements/1.1/"
   xmlns:cc="http://creativecommons.org/ns#"
   xmlns:rdf="http://www.w3.org/1999/02/22-rdf-syntax-ns#"
   xmlns:svg="http://www.w3.org/2000/svg"
   xmlns="http://www.w3.org/2000/svg"
   xmlns:sodipodi="http://sodipodi.sourceforge.net/DTD/sodipodi-0.dtd"
   xmlns:inkscape="http://www.inkscape.org/namespaces/inkscape"
   width="210mm"
   height="297mm"
   viewBox="0 0 744.09448819 1052.3622047"
   id="svg2"
   version="1.1"
   inkscape:version="0.91 r13725"
   sodipodi:docname="dessin4362.svg">
  <defs
     id="defs4">
    <inkscape:path-effect
       effect="spiro"
       id="path-effect4243"
       is_visible="true" />
    <inkscape:path-effect
       effect="spiro"
       id="path-effect4230"
       is_visible="true" />
    <inkscape:path-effect
       effect="spiro"
       id="path-effect4226"
       is_visible="true" />
    <inkscape:path-effect
       effect="spiro"
       id="path-effect4222"
       is_visible="true" />
    <linearGradient
       id="linearGradient4210"
       osb:paint="solid">
      <stop
         style="stop-color:#f3ff00;stop-opacity:1;"
         offset="0"
         id="stop4212" />
    </linearGradient>
    <linearGradient
       id="linearGradient4204"
       osb:paint="solid">
      <stop
         style="stop-color:#000000;stop-opacity:1;"
         offset="0"
         id="stop4206" />
    </linearGradient>
  </defs>
  <sodipodi:namedview
     id="base"
     pagecolor="#ffffff"
     bordercolor="#666666"
     borderopacity="1.0"
     inkscape:pageopacity="0.0"
     inkscape:pageshadow="2"
     inkscape:zoom="0.39948712"
     inkscape:cx="253.38174"
     inkscape:cy="468.01694"
     inkscape:document-units="px"
     inkscape:current-layer="layer1"
     showgrid="false"
     showguides="false"
     inkscape:window-width="1366"
     inkscape:window-height="693"
     inkscape:window-x="0"
     inkscape:window-y="24"
     inkscape:window-maximized="1" />
  <metadata
     id="metadata7">
    <rdf:RDF>
      <cc:Work
         rdf:about="">
        <dc:format>image/svg+xml</dc:format>
        <dc:type
           rdf:resource="http://purl.org/dc/dcmitype/StillImage" />
        <dc:title></dc:title>
      </cc:Work>
    </rdf:RDF>
  </metadata>
  <g
     inkscape:label="Capa 1"
     inkscape:groupmode="layer"
     id="layer1">
    <path
       style="opacity:1;fill:#deaa87;fill-opacity:1;fill-rule:evenodd;stroke:none;stroke-width:55.69015884;stroke-linecap:round;stroke-linejoin:bevel;stroke-miterlimit:4;stroke-dasharray:none;stroke-opacity:0.97752811"
       d="m 643.55084,407.54209 c 0,84.25509 0.63991,45.92744 -11.32988,127.29574 C 622.03717,604.06534 414.18617,688.84248 363.95142,690.5435 295.04501,692.87675 99.200273,582.71031 96.321779,524.63173 90.099428,399.0849 91.156065,483.29205 91.156065,399.03698 c 0,-84.25508 5.5e-5,0 3.464704,-104.33205 1.267306,-38.16272 49.968291,-104.82738 100.618101,-155.37911 48.82936,-48.734784 118.07992,-76.021807 160.20746,-76.021807 42.12755,0 117.87601,17.574479 155.28306,46.356457 32.54352,25.03987 125.70244,141.82683 128.29565,181.64246 8.56775,131.5483 4.5258,31.98407 4.5258,116.23916 z"
       id="path4153"
       inkscape:connector-curvature="0"
       sodipodi:nodetypes="sssssssssss" />
    <path
       style="opacity:1;fill:#d38d5f;fill-opacity:1;fill-rule:evenodd;stroke:none;stroke-width:55.69015884;stroke-linecap:round;stroke-linejoin:bevel;stroke-miterlimit:4;stroke-dasharray:none;stroke-opacity:0.97752811"
       d="m 35.194154,358.66072 c 8.010115,-10.44087 16.09455,-10.13565 24.045617,-9.92314 4.558774,-1.71105 12.519961,2.70217 21.038668,8.11892 l 11.125903,11.22605 -0.300796,67.45698 -24.346369,10.5245 C 55.370412,444.56067 46.982343,438.34502 41.208063,428.02201 L 32.48776,392.43928 Z"
       id="rect4160"
       inkscape:connector-curvature="0"
       sodipodi:nodetypes="ccccccccc" />
    <path
       style="opacity:0.90700001;fill:#d38d5f;fill-opacity:1;fill-rule:evenodd;stroke:none;stroke-width:55.69015884;stroke-linecap:round;stroke-linejoin:bevel;stroke-miterlimit:4;stroke-dasharray:none;stroke-opacity:0.97752811"
       d="m 649.15797,359.4596 c 7.82642,-7.79506 17.297,-13.12389 31.50273,-11.34998 7.23636,0.6286 14.65426,0.41014 19.5617,11.9071 l 0.85052,26.36574 c -3.99292,15.25274 -3.91192,29.48699 -13.61703,46.16776 -4.47947,5.04674 -6.3605,13.08605 -21.25384,13.47103 -6.30967,-1.92308 -10.72399,-3.99193 -23.05806,-11.18634 l 0.60142,-69.86258 z"
       id="rect4164"
       inkscape:connector-curvature="0"
       sodipodi:nodetypes="ccccccccc" />
    <path
       style="opacity:1;fill:#d38d5f;fill-opacity:1;fill-rule:evenodd;stroke:none;stroke-width:55.69015884;stroke-linecap:round;stroke-linejoin:bevel;stroke-miterlimit:4;stroke-dasharray:none;stroke-opacity:0.97752811"
       d="m 311.54015,674.70482 c 15.33833,6.26521 30.66571,12.53313 54.85778,16.58491 l 56.55881,-15.7344 16.15966,101.21049 -142.8854,1.70103 z"
       id="rect4168"
       inkscape:connector-curvature="0"
       sodipodi:nodetypes="cccccc" />
    <rect
       style="opacity:1;fill:#deaa87;fill-opacity:1;fill-rule:evenodd;stroke:none;stroke-width:55.69015884;stroke-linecap:round;stroke-linejoin:bevel;stroke-miterlimit:4;stroke-dasharray:none;stroke-opacity:0.97752811"
       id="rect4171"
       width="375.0741"
       height="274.71417"
       x="177.15974"
       y="775.91528" />
    <path
       style="fill:#502d16;fill-rule:evenodd;stroke:none;stroke-width:1.4491539px;stroke-linecap:butt;stroke-linejoin:miter;stroke-opacity:1"
       d="M 86.950138,358.12492 C 99.04994,277.35917 119.23957,240.76414 153.84592,196.00889 c 46.2992,-35.25186 137.56565,26.3937 213.43216,54.85482 78.56616,-40.01026 132.11975,-63.0782 192.68846,-62.59418 52.66786,52.46719 61.20415,112.94319 73.96969,178.87903 31.76178,-26.0592 68.02567,-65.22906 77.28934,-95.78787 -5.69207,-72.9174 -37.14798,-129.06538 -88.1923,-183.841853 -23.82465,-2.033329 -44.03237,3.167251 -61.05358,14.740773 L 549.69799,46.469505 C 492.85818,26.995695 434.18893,11.790594 370.57897,8.1137774 278.9587,8.5520176 196.47606,24.453875 134.24115,74.621161 98.189202,128.99569 43.589558,176.74607 35.987091,241.28116 27.503289,286.4915 69.708845,319.38104 86.950138,358.12492 Z"
       id="path4186"
       inkscape:connector-curvature="0"
       sodipodi:nodetypes="ccccccccccccc" />
    <path
       style="opacity:1;fill:#784421;fill-rule:evenodd;stroke:none;stroke-width:1.39137399px;stroke-linecap:butt;stroke-linejoin:miter;stroke-opacity:1"
       d="m 90.010622,442.39761 27.256628,97.81857 c 63.16283,58.24537 141.52373,94.53793 233.55186,111.08886 l 35.45328,-0.40754 c 120.87935,-26.67747 196.04324,-74.9677 224.9207,-107.5002 l 34.3995,-84.97549 c -7.5278,38.78457 2.97896,74.56338 -22.85321,116.39865 -70.34569,47.2293 -132.48462,97.53615 -251.9926,126.32961 C 272.64849,666.38782 170.18224,638.90558 99.769332,558.00101 Z"
       id="path4188"
       inkscape:connector-curvature="0"
       sodipodi:nodetypes="cccccccccc" />
    <path
       style="opacity:1;fill:#552200;fill-rule:evenodd;stroke:none;stroke-width:1px;stroke-linecap:butt;stroke-linejoin:miter;stroke-opacity:1"
       d="m 284.59954,630.95225 -9.62241,-35.48266 0,-7.21677 46.30779,-37.88823 c 29.41768,-4.83832 61.21156,-3.73616 93.81844,-0.60139 l 43.30083,37.28682 1.2028,6.61541 -8.41963,36.08398 18.64341,0 10.82522,-32.4756 0,-15.03501 c -11.18887,-19.57315 -23.33858,-38.80312 -56.5316,-50.51761 -36.05255,-4.62244 -71.39712,-4.99693 -105.84643,4e-5 -24.07927,15.49549 -53.83301,21.06057 -66.15405,57.13298 l 0,8.4196 13.83222,34.27981 z"
       id="path4190"
       inkscape:connector-curvature="0"
       sodipodi:nodetypes="ccccccccccccccccc" />
    <path
       style="opacity:1;fill:#784421;fill-rule:evenodd;stroke:none;stroke-width:1px;stroke-linecap:butt;stroke-linejoin:miter;stroke-opacity:1"
       d="m 356.88131,610.66163 23.72143,0.249 -2.30241,42.82027 -21.91722,-0.10317 z"
       id="path4192"
       inkscape:connector-curvature="0"
       sodipodi:nodetypes="ccccc" />
    <path
       style="opacity:0.49299999;fill:#6c5d53;fill-rule:evenodd;stroke:#000000;stroke-width:1.78309941px;stroke-linecap:butt;stroke-linejoin:miter;stroke-opacity:1"
       d="m 335.16874,453.22523 -5.48949,19.57344 37.88241,20.32643 39.17511,-21.97902 -8.28066,-23.18439 c 7.69667,9.11925 17.80523,17.03253 21.13609,28.3347 -17.48402,15.11169 -34.96803,22.0217 -52.45202,31.1593 -15.98231,-8.54635 -32.09632,-17.35615 -48.87198,-27.48918 -0.31769,-11.88947 9.78099,-18.57054 16.90054,-26.74128 z"
       id="path4194"
       inkscape:connector-curvature="0"
       sodipodi:nodetypes="ccccccccc" />
    <path
       style="fill:#241c1c;fill-rule:evenodd;stroke:#000000;stroke-width:1.37619448px;stroke-linecap:butt;stroke-linejoin:miter;stroke-opacity:1"
       d="m 158.33238,304.3512 31.11601,-13.35156 24.48548,-5.73101 23.47284,-1.77644 30.5163,12.74909 32.45403,12.46333 -24.22241,-31.30272 c -12.6659,-7.08556 -23.46047,-10.42844 -34.71982,-14.70093 -9.81306,-0.24251 -19.25723,-1.59208 -30.49089,2.42703 -9.84268,0.72017 -17.60149,4.22872 -30.20236,11.06034 -7.71393,6.73906 -21.36762,14.76174 -22.40918,28.16287 z"
       id="path4196"
       inkscape:connector-curvature="0"
       sodipodi:nodetypes="ccccccccccc" />
    <path
       sodipodi:nodetypes="ccccccccccc"
       inkscape:connector-curvature="0"
       id="path4146"
       d="m 577.48281,304.91412 -31.11601,-13.35158 -24.48549,-5.731 -23.47283,-1.77645 -30.51631,12.74911 -32.45405,12.46334 24.22244,-31.30274 c 12.6659,-7.08556 23.46047,-10.42844 34.7198,-14.70093 9.81309,-0.24251 19.25724,-1.59207 30.49091,2.42705 9.84269,0.72013 17.60146,4.22873 30.20236,11.06033 7.71393,6.73908 21.36762,14.76175 22.40918,28.16287 z"
       style="fill:#241c1c;fill-rule:evenodd;stroke:#000000;stroke-width:1.37619448px;stroke-linecap:butt;stroke-linejoin:miter;stroke-opacity:1" />
    <path
       sodipodi:nodetypes="ccccccccccccccccc"
       style="opacity:0.54599998;fill:#ffffff;fill-opacity:1;fill-rule:evenodd;stroke:none;stroke-width:0.35761797px;stroke-linecap:butt;stroke-linejoin:miter;stroke-opacity:1"
       d="m 169.43942,357.48552 c 2.14948,-7.52978 7.5615,-11.79695 13.37162,-15.66608 l 9.93204,-3.61414 9.93205,-3.61418 13.30024,-2.35063 14.90374,-0.60836 c 9.08453,2.65332 18.46302,2.95479 27.06995,9.42892 8.70398,5.32176 16.74591,11.04069 22.81181,17.94526 3.31097,2.62271 6.01576,5.36667 6.69146,8.5164 l 0.6083,7.6039 c -2.53046,6.02482 -6.81759,11.11507 -13.78096,17.58487 -9.5713,5.071 -18.01774,8.16904 -27.77216,11.27628 l -25.36146,-0.27057 c -9.76953,-1.99487 -18.23949,-4.06135 -29.89002,-9.75549 -14.32635,-8.61091 -16.26623,-12.11767 -19.54868,-21.16335 l -2.74867,-7.21719 c -0.91245,-7.29956 -1.04858,-5.66244 0.48074,-8.09564 z"
       id="path4175"
       inkscape:connector-curvature="0" />
    <g
       id="g4163"
       transform="matrix(1.3410599,0,0,1.3410599,-484.38457,-150.07881)">
      <ellipse
         style="opacity:1;fill:#502d16;fill-opacity:1;fill-rule:evenodd;stroke:none;stroke-width:55.69015884;stroke-linecap:round;stroke-linejoin:bevel;stroke-miterlimit:4;stroke-dasharray:none;stroke-opacity:0.97752811"
         id="ellipse4161"
         cx="530.86005"
         cy="388.04538"
         rx="21.974482"
         ry="22.236084" />
      <ellipse
         ry="9.4033194"
         rx="9.2926912"
         cy="388.04538"
         cx="531.01099"
         id="path4159"
         style="opacity:1;fill:#000000;fill-opacity:1;fill-rule:evenodd;stroke:none;stroke-width:55.69015884;stroke-linecap:round;stroke-linejoin:bevel;stroke-miterlimit:4;stroke-dasharray:none;stroke-opacity:0.97752811" />
    </g>
    <path
       inkscape:connector-curvature="0"
       id="path4173"
       d="m 564.93038,357.48552 c -2.14948,-7.52978 -7.5615,-11.79695 -13.37162,-15.66608 l -9.93204,-3.61414 -9.93204,-3.61418 -13.30025,-2.35063 -14.90373,-0.60836 c -9.08454,2.65332 -18.46303,2.95479 -27.06996,9.42892 -8.70397,5.32176 -16.74591,11.04069 -22.8118,17.94526 -3.31098,2.62271 -6.01573,5.36667 -6.69147,8.5164 l -0.60829,7.6039 c 2.53045,6.02482 6.81758,11.11507 13.78096,17.58487 9.57129,5.071 18.01773,8.16904 27.77215,11.27628 l 25.36146,-0.27057 c 9.76953,-1.99487 18.23949,-4.06135 29.89003,-9.75549 14.32635,-8.61091 16.26623,-12.11767 19.54868,-21.16335 l 2.74866,-7.21719 c 0.91244,-7.29956 1.04859,-5.66244 -0.48074,-8.09564 z"
       style="opacity:0.54599998;fill:#ffffff;fill-opacity:1;fill-rule:evenodd;stroke:none;stroke-width:0.35761797px;stroke-linecap:butt;stroke-linejoin:miter;stroke-opacity:1"
       sodipodi:nodetypes="ccccccccccccccccc" />
    <g
       transform="matrix(1.3410599,0,0,1.3410599,-205.73949,-150.07881)"
       id="g4167">
      <ellipse
         ry="22.236084"
         rx="21.974482"
         cy="388.04538"
         cx="530.86005"
         id="ellipse4169"
         style="opacity:1;fill:#502d16;fill-opacity:1;fill-rule:evenodd;stroke:none;stroke-width:55.69015884;stroke-linecap:round;stroke-linejoin:bevel;stroke-miterlimit:4;stroke-dasharray:none;stroke-opacity:0.97752811" />
      <ellipse
         style="opacity:1;fill:#000000;fill-opacity:1;fill-rule:evenodd;stroke:none;stroke-width:55.69015884;stroke-linecap:round;stroke-linejoin:bevel;stroke-miterlimit:4;stroke-dasharray:none;stroke-opacity:0.97752811"
         id="ellipse4171"
         cx="531.01099"
         cy="388.04538"
         rx="9.2926912"
         ry="9.4033194" />
    </g>
    <path
       style="opacity:0.55400002;fill:#de8787;fill-rule:evenodd;stroke:none;stroke-width:1px;stroke-linecap:butt;stroke-linejoin:miter;stroke-opacity:1"
       d="m 303.83475,580.17632 21.42472,-5.26253 24.36544,-2.39208 42.84947,0 26.46577,3.58814 19.74436,5.74094 z"
       id="path4179"
       inkscape:connector-curvature="0" />
    <path
       style="opacity:0.55400002;fill:#d35f5f;fill-opacity:1;fill-rule:evenodd;stroke:none;stroke-width:1px;stroke-linecap:butt;stroke-linejoin:miter;stroke-opacity:1"
       d="m 303.86289,580.17632 135.02867,1.19604 -14.90851,4.54488 c -11.52188,4.73965 -17.3223,-0.15974 -25.98345,-0.23927 l -27.26128,-2.15283 -25.13148,0 c -8.05886,0.575 -15.20581,3.71019 -24.27967,1.43522 z"
       id="path4181"
       inkscape:connector-curvature="0"
       sodipodi:nodetypes="cccccccc" />
    <path
       style="opacity:0.55400002;fill:#de8787;fill-opacity:1;fill-rule:evenodd;stroke:none;stroke-width:1px;stroke-linecap:butt;stroke-linejoin:miter;stroke-opacity:1"
       d="m 306.87514,588.78771 20.38844,-2.63122 19.67308,-2.39214 39.34608,0 25.7538,3.10968 15.38075,3.58812 -22.53462,9.56817 -16.45387,2.63127 -40.06142,0.47845 -25.3961,-5.74093 z"
       id="path4183"
       inkscape:connector-curvature="0" />
    <path
       style="opacity:1;fill:none;fill-opacity:1;fill-rule:evenodd;stroke:#f6ff2b;stroke-width:6.11671019;stroke-linecap:round;stroke-linejoin:bevel;stroke-miterlimit:4;stroke-dasharray:none;stroke-opacity:1"
       id="path4202"
       sodipodi:type="arc"
       sodipodi:cx="-805.65027"
       sodipodi:cy="-36.257519"
       sodipodi:rx="15.125676"
       sodipodi:ry="16.38615"
       sodipodi:start="0"
       sodipodi:end="4.7308108"
       d="m -790.52459,-36.257519 a 15.125676,16.38615 0 0 1 -9.40175,15.167548 15.125676,16.38615 0 0 1 -16.51746,-3.688004 15.125676,16.38615 0 0 1 -3.09947,-17.95881 15.125676,16.38615 0 0 1 14.17163,-9.904104"
       sodipodi:open="true"
       transform="matrix(-0.8972305,-0.44156248,0.44156248,-0.8972305,0,0)" />
    <circle
       style="opacity:1;fill:#1a1a1a;fill-opacity:1;fill-rule:evenodd;stroke:none;stroke-width:1.70000005;stroke-linecap:round;stroke-linejoin:bevel;stroke-miterlimit:4;stroke-dasharray:none;stroke-opacity:1"
       id="path4216"
       cx="668.41663"
       cy="412.91351"
       r="18.391562" />
    <path
       style="opacity:1;fill:#ffffff;fill-opacity:1;fill-rule:evenodd;stroke:none;stroke-width:1.70000005;stroke-linecap:round;stroke-linejoin:bevel;stroke-miterlimit:4;stroke-dasharray:none;stroke-opacity:1"
       id="path4218"
       d="m 751.41895,407.78394 c 0.22703,0.72959 0.35944,1.4801 0.45221,2.23718 0.0324,0.65887 0.24038,1.28666 0.35372,1.93284 0.0936,0.65564 0.1637,1.3148 0.2695,1.96871 0.11471,0.43746 0.21336,0.87865 0.33066,1.31538 0,0 -2.5417,1.37997 -2.5417,1.37997 l 0,0 c -0.11906,-0.44579 -0.21767,-0.89653 -0.33892,-1.34195 -0.11407,-0.65122 -0.20006,-1.30709 -0.27562,-1.96371 -0.11287,-0.65369 -0.33065,-1.28842 -0.34326,-1.95706 -0.0792,-0.7327 -0.17989,-1.47272 -0.48498,-2.15128 0,0 2.57852,-1.42008 2.57852,-1.42008 z"
       inkscape:connector-curvature="0" />
    <path
       style="opacity:1;fill:#000000;fill-opacity:1;fill-rule:evenodd;stroke:none;stroke-width:200;stroke-linecap:round;stroke-linejoin:bevel;stroke-miterlimit:4;stroke-dasharray:none;stroke-opacity:1"
       d="m 178.88877,774.55171 105.80672,3.66132 78.34283,121.13867 82.41226,-124.21785 106.00746,-0.58214 0,277.03869 -372.56927,0 z"
       id="rect4232"
       inkscape:connector-curvature="0"
       sodipodi:nodetypes="cccccccc" />
    <path
       style="fill:#000000;fill-opacity:1;fill-rule:evenodd;stroke:#ffcea0;stroke-width:3.59806442px;stroke-linecap:butt;stroke-linejoin:miter;stroke-opacity:1"
       d="m 363.58126,826.69552 -0.39807,72.84208"
       id="path4237"
       inkscape:connector-curvature="0"
       sodipodi:nodetypes="cc" />
    <rect
       style="opacity:1;fill:#000000;fill-opacity:1;fill-rule:evenodd;stroke:none;stroke-width:200;stroke-linecap:round;stroke-linejoin:bevel;stroke-miterlimit:4;stroke-dasharray:none;stroke-opacity:1"
       id="rect4239"
       width="101.1032"
       height="27.863089"
       x="317.80624"
       y="892.77081" />
    <ellipse
       style="opacity:1;fill:#ffff00;fill-opacity:1;fill-rule:evenodd;stroke:#fffa31;stroke-width:1.15562916;stroke-linecap:round;stroke-linejoin:bevel;stroke-miterlimit:4;stroke-dasharray:none;stroke-opacity:1"
       id="path4245"
       cx="521.82007"
       cy="486.77704"
       rx="12.92953"
       ry="8.220212"
       transform="matrix(0.80152319,0.59796369,-0.23829593,0.97119259,0,0)" />
    <ellipse
       transform="matrix(0.80152319,0.59796369,-0.23829593,0.97119259,0,0)"
       ry="8.220212"
       rx="12.92953"
       cy="485.53989"
       cx="538.15363"
       id="ellipse4247"
       style="opacity:1;fill:#ffff00;fill-opacity:1;fill-rule:evenodd;stroke:#fffa31;stroke-width:1.15562916;stroke-linecap:round;stroke-linejoin:bevel;stroke-miterlimit:4;stroke-dasharray:none;stroke-opacity:1" />
    <ellipse
       style="opacity:1;fill:#ffff00;fill-opacity:1;fill-rule:evenodd;stroke:#fffa31;stroke-width:1.1290307;stroke-linecap:round;stroke-linejoin:bevel;stroke-miterlimit:4;stroke-dasharray:none;stroke-opacity:1"
       id="ellipse4249"
       cx="443.13953"
       cy="638.89044"
       rx="11.835176"
       ry="8.5716753"
       transform="matrix(0.92568141,0.37830402,-0.12165384,0.99257259,0,0)" />
    <ellipse
       transform="matrix(0.92568141,0.37830402,-0.12165384,0.99257259,0,0)"
       ry="8.5716753"
       rx="11.835176"
       cy="639.32648"
       cx="460.92618"
       id="ellipse4251"
       style="opacity:1;fill:#ffff00;fill-opacity:1;fill-rule:evenodd;stroke:#fffa31;stroke-width:1.1290307;stroke-linecap:round;stroke-linejoin:bevel;stroke-miterlimit:4;stroke-dasharray:none;stroke-opacity:1"
       inkscape:transform-center-x="1.1754616"
       inkscape:transform-center-y="-0.60393565" />
    <ellipse
       inkscape:transform-center-y="-0.087296907"
       inkscape:transform-center-x="1.2165447"
       style="opacity:1;fill:#ffff00;fill-opacity:1;fill-rule:evenodd;stroke:#fffa31;stroke-width:1.10900736;stroke-linecap:round;stroke-linejoin:bevel;stroke-miterlimit:4;stroke-dasharray:none;stroke-opacity:1"
       id="ellipse4253"
       cx="337.47449"
       cy="823.80743"
       rx="11.16789"
       ry="8.7644873"
       transform="matrix(0.99962092,-0.02753208,0.03330885,0.99944511,0,0)" />
    <ellipse
       transform="matrix(0.99962092,-0.02753208,0.03330885,0.99944511,0,0)"
       ry="8.7644873"
       rx="11.16789"
       cy="821.71741"
       cx="354.37634"
       id="ellipse4255"
       style="opacity:1;fill:#ffff00;fill-opacity:1;fill-rule:evenodd;stroke:#fffa31;stroke-width:1.10900736;stroke-linecap:round;stroke-linejoin:bevel;stroke-miterlimit:4;stroke-dasharray:none;stroke-opacity:1"
       inkscape:transform-center-x="1.2166383"
       inkscape:transform-center-y="-0.087368536" />
    <ellipse
       inkscape:transform-center-y="0.45294018"
       inkscape:transform-center-x="1.174655"
       style="opacity:1;fill:#ffff00;fill-opacity:1;fill-rule:evenodd;stroke:#fffa31;stroke-width:1.12883019;stroke-linecap:round;stroke-linejoin:bevel;stroke-miterlimit:4;stroke-dasharray:none;stroke-opacity:1"
       id="ellipse4257"
       cx="242.76213"
       cy="933.87421"
       rx="11.827987"
       ry="8.5738344"
       transform="matrix(0.89663768,-0.44276503,0.19276638,0.98124468,0,0)" />
    <ellipse
       transform="matrix(0.89663768,-0.44276503,0.19276638,0.98124468,0,0)"
       ry="8.5738344"
       rx="11.827987"
       cy="934.17035"
       cx="260.82547"
       id="ellipse4259"
       style="opacity:1;fill:#ffff00;fill-opacity:1;fill-rule:evenodd;stroke:#fffa31;stroke-width:1.12883019;stroke-linecap:round;stroke-linejoin:bevel;stroke-miterlimit:4;stroke-dasharray:none;stroke-opacity:1"
       inkscape:transform-center-x="1.1747761"
       inkscape:transform-center-y="0.45263701" />
    <ellipse
       inkscape:transform-center-y="0.96007679"
       inkscape:transform-center-x="1.0504"
       style="opacity:1;fill:#ffff00;fill-opacity:1;fill-rule:evenodd;stroke:#fffa31;stroke-width:1.16629922;stroke-linecap:round;stroke-linejoin:bevel;stroke-miterlimit:4;stroke-dasharray:none;stroke-opacity:1"
       id="ellipse4261"
       cx="127.48219"
       cy="943.63391"
       rx="13.503911"
       ry="8.0165796"
       transform="matrix(0.68889708,-0.72485917,0.36107921,0.93253515,0,0)" />
    <rect
       style="opacity:1;fill:#deaa87;fill-opacity:1;fill-rule:evenodd;stroke:none;stroke-width:0.322;stroke-linecap:round;stroke-linejoin:bevel;stroke-miterlimit:4;stroke-dasharray:none;stroke-opacity:1"
       id="rect4263"
       width="15.761741"
       height="67.550323"
       x="369.21161"
       y="-17.411087"
       transform="matrix(0.70113996,0.71302367,-0.71302367,0.70113996,0,0)" />
    <circle
       style="opacity:1;fill:#ffffff;fill-opacity:1;fill-rule:evenodd;stroke:#000000;stroke-width:2.89039469;stroke-linecap:round;stroke-linejoin:bevel;stroke-miterlimit:4;stroke-dasharray:none;stroke-opacity:1"
       id="path4268"
       cx="62.652836"
       cy="409.91711"
       r="20.108852" />
  </g>
</svg>
